<svg width="30" height="33" viewBox="0 0 30 33" fill="none" xmlns="http://www.w3.org/2000/svg">
<path d="M16.83 27C16.33 27 15.83 26.75 15.33 26.25C14.85 25.73 14.41 25.09 14.01 24.33C13.63 23.57 13.18 22.75 12.66 21.87C12.14 20.97 11.62 20.13 11.1 19.35C10.58 18.57 9.92 17.91 9.12 17.37C8.32 16.83 7.47 16.54 6.57 16.5V20.22C6.57 22.38 6.63 23.85 6.75 24.63C6.89 25.39 7.08 25.87 7.32 26.07C7.8 26.45 8.54 26.64 9.54 26.64L9.6 27H1.56L1.62 26.64C2.6 26.64 3.32 26.46 3.78 26.1C4.16 25.8 4.38 24.82 4.44 23.16C4.48 22.5 4.5 21.52 4.5 20.22V12.63C4.5 10.41 4.44 8.94 4.32 8.22C4.2 7.5 4.02 7.05 3.78 6.87C3.32 6.53 2.6 6.36 1.62 6.36L1.56 6H8.52C13.56 6 16.08 7.7 16.08 11.1C16.08 12.56 15.56 13.79 14.52 14.79C13.5 15.77 12.26 16.34 10.8 16.5C12.26 17.36 13.61 18.94 14.85 21.24C15.33 22.14 15.84 23 16.38 23.82C17.56 25.7 19.08 26.64 20.94 26.64L21 27H16.83ZM6.57 6.69V15.9H8.46C9.98 15.9 11.24 15.51 12.24 14.73C13.24 13.95 13.74 12.79 13.74 11.25C13.74 8.21 12 6.69 8.52 6.69H6.57Z" fill="white"/>
<path d="M15.46 20.64C15.46 22.58 15.93 24.06 16.87 25.08C17.83 26.1 19 26.61 20.38 26.61C21.76 26.61 22.89 26.28 23.77 25.62C24.65 24.94 25.09 23.88 25.09 22.44C25.09 21.14 24.4 19.98 23.02 18.96C22.42 18.52 21.75 18.09 21.01 17.67C20.27 17.23 19.53 16.78 18.79 16.32C18.05 15.86 17.38 15.38 16.78 14.88C15.4 13.72 14.71 12.37 14.71 10.83C14.71 9.27 15.27 8.03 16.39 7.11C17.53 6.19 19.03 5.73 20.89 5.73C22.77 5.73 24.51 6.14 26.11 6.96C26.11 7.96 25.96 9.68 25.66 12.12L25.21 12C25.21 10.12 24.75 8.72 23.83 7.8C22.91 6.86 21.85 6.39 20.65 6.39C19.47 6.39 18.52 6.74 17.8 7.44C17.08 8.12 16.72 8.93 16.72 9.87C16.72 10.81 16.97 11.62 17.47 12.3C17.99 12.96 18.63 13.51 19.39 13.95C20.17 14.39 21.01 14.88 21.91 15.42C22.81 15.94 23.64 16.46 24.4 16.98C25.18 17.48 25.82 18.14 26.32 18.96C26.84 19.78 27.1 20.7 27.1 21.72C27.1 23.56 26.44 24.95 25.12 25.89C23.82 26.83 22.25 27.3 20.41 27.3C19.39 27.3 18.34 27.14 17.26 26.82C16.2 26.5 15.33 26.03 14.65 25.41C14.65 24.13 14.77 22.51 15.01 20.55L15.46 20.64Z" fill="white"/>
</svg>
